<svg xmlns="http://www.w3.org/2000/svg" viewBox="0 0 512 384"><defs><style>.a{fill:#9c9c9c;}.b{fill:#90cdf4;}</style></defs><title>fish-icon-rating-half</title><path class="a" d="M510.65,261.47C468,185.13,397.9,138.46,315.73,129.81c-13.19-16.66-35.42-29.34-59.73-38.9v341C269.71,425.7,282.91,417,293.17,405c91.87-1.78,171-49.89,217.48-133.14A10.67,10.67,0,0,0,510.65,261.47Z" transform="translate(0 -64)"/><path class="b" d="M256,90.91v341C221.44,447.68,183.61,448,181.33,448a10.66,10.66,0,0,1-10.66-10.67c0-27.13,3.75-46,11.08-57.87-33.2-13.29-63.58-29.28-81.16-41.93C71.91,383.43,13.34,384,10.67,384A10.66,10.66,0,0,1,0,373.33c0-61.8,21.54-92.82,36-106.66C21.54,252.82,0,221.8,0,160a10.66,10.66,0,0,1,10.67-10.67c2.67,0,61.24.58,89.92,46.47,13.23-9.52,33.75-20.94,57.22-31.68-3.43-15.31-16.42-52.72-29.09-85.62A10.67,10.67,0,0,1,139.7,64C143.49,64.42,204.42,70.63,256,90.91Z" transform="translate(0 -64)"/></svg>