<svg xmlns="http://www.w3.org/2000/svg" viewBox="0 0 512 384"><defs><style>.a{fill:#979da5;}</style></defs><title>fish-icon-rating-empty</title><path class="a" d="M510.65,261.47C468,185.13,397.9,138.46,315.73,129.81c-41.2-52-170.46-65.21-176-65.75a10.67,10.67,0,0,0-11,14.45c12.67,32.9,25.66,70.31,29.09,85.62-23.47,10.74-44,22.16-57.22,31.68-28.69-45.9-87.25-46.47-89.93-46.47A10.66,10.66,0,0,0,0,160c0,61.8,21.54,92.82,35.95,106.67C21.54,280.51,0,311.53,0,373.33A10.66,10.66,0,0,0,10.67,384c2.68,0,61.24-.57,89.93-46.47,17.57,12.65,48,28.64,81.16,41.93-7.34,11.87-11.09,30.74-11.09,57.87A10.66,10.66,0,0,0,181.33,448c3.17,0,75.71-.63,111.83-43,91.87-1.77,171-49.89,217.48-133.13A10.67,10.67,0,0,0,510.65,261.47Z" transform="translate(0 -64)"/></svg>